<svg width="12" height="22" viewBox="0 0 12 22" fill="none" xmlns="http://www.w3.org/2000/svg">
<path d="M0.325817 10.1416L9.41557 0.351461C9.62581 0.124845 9.90645 0 10.2057 0C10.5049 0 10.7856 0.124845 10.9958 0.351461L11.6652 1.07227C12.1008 1.54195 12.1008 2.30533 11.6652 2.7743L4.03233 10.9954L11.6737 19.2257C11.8839 19.4523 12 19.7544 12 20.0765C12 20.399 11.8839 20.7011 11.6737 20.9279L11.0043 21.6485C10.7939 21.8752 10.5134 22 10.2142 22C9.91492 22 9.63428 21.8752 9.42404 21.6485L0.325817 11.8495C0.115084 11.6222 -0.00066185 11.3186 2.86102e-06 10.996C-0.00066185 10.6721 0.115084 10.3687 0.325817 10.1416Z" fill="black"/>
</svg>
