<svg width="55" height="55" viewBox="0 0 55 55" fill="none" xmlns="http://www.w3.org/2000/svg">
<path d="M27.5 55C42.6878 55 55 42.6878 55 27.5C55 12.3122 42.6878 0 27.5 0C12.3122 0 0 12.3122 0 27.5C0 42.6878 12.3122 55 27.5 55Z" fill="url(#paint0_linear_99_532)"/>
<path d="M54.9761 28.6395C54.3949 42.9191 42.9212 54.3929 28.6416 54.9762L14.333 40.6676L40.6686 14.332L54.9761 28.6395Z" fill="url(#paint1_linear_99_532)"/>
<path d="M37.4473 42.002C36.8486 42.0038 36.2554 41.8868 35.7023 41.6578C35.1491 41.4288 34.6468 41.0923 34.2246 40.6678L27.5 33.9453L20.7754 40.671C19.9207 41.5257 18.7615 42.0059 17.5527 42.0059C16.344 42.0059 15.1848 41.5257 14.3301 40.671C13.4754 39.8163 12.9952 38.6571 12.9952 37.4483C12.9952 36.2396 13.4754 35.0804 14.3301 34.2257L21.0547 27.5L14.329 20.7754C13.4743 19.9207 12.9941 18.7615 12.9941 17.5527C12.9941 16.344 13.4743 15.1848 14.329 14.3301C15.1837 13.4754 16.3429 12.9952 17.5517 12.9952C18.7604 12.9952 19.9196 13.4754 20.7743 14.3301L27.5 21.0547L34.2246 14.329C34.6478 13.9058 35.1502 13.5701 35.7032 13.3411C36.2561 13.112 36.8488 12.9941 37.4473 12.9941C38.0458 12.9941 38.6384 13.112 39.1914 13.3411C39.7443 13.5701 40.2467 13.9058 40.6699 14.329C41.0931 14.7522 41.4288 15.2546 41.6579 15.8076C41.8869 16.3605 42.0048 16.9532 42.0048 17.5517C42.0048 18.1502 41.8869 18.7428 41.6579 19.2958C41.4288 19.8487 41.0931 20.3511 40.6699 20.7743L33.9453 27.5L40.671 34.2246C41.3083 34.8618 41.7422 35.6737 41.918 36.5576C42.0938 37.4415 42.0035 38.3576 41.6585 39.1902C41.3135 40.0227 40.7294 40.7342 39.98 41.2347C39.2306 41.7352 38.3495 42.0022 37.4483 42.002H37.4473Z" fill="white"/>
<defs>
<linearGradient id="paint0_linear_99_532" x1="8.05449" y1="8.05449" x2="46.9455" y2="46.9455" gradientUnits="userSpaceOnUse">
<stop stop-color="#FF3B30"/>
<stop offset="1" stop-color="#FF3B30"/>
</linearGradient>
<linearGradient id="paint1_linear_99_532" x1="27.5008" y1="27.4998" x2="46.9452" y2="46.9442" gradientUnits="userSpaceOnUse">
<stop stop-color="#B33128"/>
<stop offset="0.93" stop-color="#B33128" stop-opacity="0"/>
</linearGradient>
</defs>
</svg>
