<svg width="20" height="19" viewBox="0 0 20 19" fill="none" xmlns="http://www.w3.org/2000/svg">
<path d="M16.0801 8.72382C16.1764 8.8241 16.2205 8.96849 16.1804 9.11289C15.8555 10.2761 15.3742 11.5716 14.7926 12.8592C13.4088 15.9316 10.934 19 9.90717 19C9.847 19 9.79085 18.992 9.7387 18.9679C9.58228 18.8957 9.09694 18.6791 9.46596 16.1963C9.61035 15.2417 9.99541 13.3124 10.9741 11.1384C11.5597 9.8469 12.2135 8.63157 12.8673 7.61679C12.9475 7.49646 13.0839 7.43228 13.2203 7.43629C13.4248 7.01915 13.6494 6.5659 13.87 6.12469C14.1969 6.53813 14.6196 6.86577 15.1014 7.07931C15.5266 7.27184 15.9999 7.37613 16.4692 7.37613C16.5253 7.37613 16.5815 7.37613 16.6376 7.37212C16.4531 7.82536 16.2566 8.29465 16.0801 8.72382ZM19.2528 2.43458C19.2568 3.37716 19.0643 4.46815 18.7875 5.08184C18.51 5.69476 18.0006 6.17249 17.3711 6.41013C16.7417 6.64778 16.0436 6.6259 15.4303 6.34931C15.1265 6.21377 14.8526 6.01913 14.6247 5.77675C14.3967 5.53436 14.2193 5.24905 14.1027 4.93744C13.862 4.3037 13.8821 3.61381 14.1628 2.99612C14.7123 2.00139 15.3461 1.82491 15.9036 1.66848C16.5053 1.50403 17.0748 1.34359 17.7727 0.192429C17.877 0.0199559 18.0936 -0.0482311 18.2781 0.0359999C19.0803 0.39699 19.2528 1.54012 19.2528 2.43458ZM13.3526 5.22222C13.0937 4.54745 13.0627 3.80647 13.2644 3.11244C12.9074 2.79156 12.5263 2.5148 12.1252 2.27013C10.942 1.55216 9.58228 1.13902 8.1704 1.11095C6.00446 1.07084 3.95083 1.88106 2.40259 3.39722C0.854343 4.91738 0 6.94695 0 9.1169C0 12.1091 1.64852 14.8286 4.29979 16.2124C4.60815 16.3778 4.95259 16.4646 5.30254 16.465C5.70765 16.465 6.11677 16.3487 6.48177 16.1201C7.14359 15.703 7.52062 15.001 7.49656 14.2349C7.45244 12.9113 7.88562 11.8163 8.7159 11.1545C9.17716 10.7895 9.74673 10.5729 10.3805 10.5127C10.942 9.29338 11.5717 8.15025 12.1934 7.1836C12.3138 6.99909 12.4742 6.85871 12.6587 6.76646C12.8913 6.29717 13.144 5.77975 13.3887 5.30244C13.3727 5.27837 13.3646 5.2503 13.3526 5.22222ZM4.50435 12.1251C3.77435 12.1251 3.18874 11.5355 3.18874 10.8095C3.18874 10.637 3.22272 10.4662 3.28874 10.3068C3.35475 10.1475 3.45151 10.0027 3.57349 9.88068C3.69547 9.75871 3.84028 9.66195 3.99965 9.59593C4.15903 9.52992 4.32984 9.49594 4.50235 9.49594C4.67485 9.49594 4.84567 9.52992 5.00504 9.59593C5.16441 9.66195 5.30922 9.75871 5.4312 9.88068C5.55318 10.0027 5.64994 10.1475 5.71596 10.3068C5.78197 10.4662 5.81595 10.637 5.81595 10.8095C5.81595 11.5355 5.23034 12.1251 4.50435 12.1251ZM5.21029 7.63684C4.48029 7.63684 3.89468 7.04722 3.89468 6.32123C3.89468 5.59524 4.48029 5.00162 5.21029 5.00162C5.93628 5.00162 6.52188 5.59524 6.52188 6.32123C6.52188 7.04722 5.93628 7.63684 5.21029 7.63684ZM9.81491 6.93091C9.08491 6.93091 8.49931 6.33728 8.49931 5.6153C8.49931 4.88931 9.08491 4.29568 9.81491 4.29568C10.5409 4.29568 11.1265 4.88931 11.1265 5.6153C11.1265 6.33728 10.5409 6.93091 9.81491 6.93091Z" fill="white"/>
</svg>
