<svg width="17" height="18" viewBox="0 0 17 18" fill="none" xmlns="http://www.w3.org/2000/svg">
<path fill-rule="evenodd" clip-rule="evenodd" d="M0.341563 15.3187C0.122864 15.5419 0 15.8446 0 16.1602C0 16.4758 0.122864 16.7785 0.341563 17.0017C0.560262 17.2249 0.856881 17.3503 1.16617 17.3503C1.47546 17.3503 1.77208 17.2249 1.99077 17.0017L8.50021 10.3565L15.0108 17.0005C15.2306 17.2172 15.525 17.3371 15.8306 17.3344C16.1362 17.3317 16.4286 17.2066 16.6447 16.986C16.8607 16.7655 16.9833 16.4672 16.986 16.1553C16.9886 15.8435 16.8712 15.543 16.6588 15.3187L10.1483 8.67464L16.6588 2.03057C16.8774 1.80739 17.0001 1.50475 17 1.18923C16.9999 0.873718 16.877 0.571169 16.6583 0.348144C16.4396 0.125119 16.143 -0.000111451 15.8338 7.44267e-08C15.5247 0.0001116 15.2282 0.125557 15.0096 0.348739L8.50021 6.99281L1.98961 0.348739C1.76979 0.132078 1.47538 0.0121916 1.16978 0.0149016C0.864185 0.0176115 0.571857 0.142701 0.35576 0.363228C0.139663 0.583755 0.0170871 0.882075 0.0144315 1.19394C0.011776 1.5058 0.129254 1.80624 0.341563 2.03057L6.85216 8.67464L0.341563 15.3187Z" fill="#747474"/>
</svg>
