<svg width="24" height="20" viewBox="0 0 24 20" fill="none" xmlns="http://www.w3.org/2000/svg">
<path d="M21.1304 3.33913H18.6261L17.2435 1.25217C16.7217 0.469565 15.8087 0 14.8696 0H9.13044C8.19131 0 7.27827 0.469565 6.75653 1.25217L5.37392 3.33913H2.86957C2.49243 3.33804 2.1188 3.41152 1.77015 3.55534C1.42151 3.69916 1.10474 3.91049 0.838058 4.17717C0.571377 4.44385 0.360048 4.76062 0.216225 5.10927C0.0724021 5.45791 -0.00107759 5.83155 1.19409e-05 6.20869V16.3304C-0.00107759 16.7076 0.0724021 17.0812 0.216225 17.4298C0.360048 17.7785 0.571377 18.0953 0.838058 18.3619C1.10474 18.6286 1.42151 18.8399 1.77015 18.9838C2.1188 19.1276 2.49243 19.2011 2.86957 19.2H21.1304C21.5076 19.2011 21.8812 19.1276 22.2298 18.9838C22.5785 18.8399 22.8953 18.6286 23.1619 18.3619C23.4286 18.0953 23.64 17.7785 23.7838 17.4298C23.9276 17.0812 24.0011 16.7076 24 16.3304V6.20869C24.0011 5.83155 23.9276 5.45791 23.7838 5.10927C23.64 4.76062 23.4286 4.44385 23.1619 4.17717C22.8953 3.91049 22.5785 3.69916 22.2298 3.55534C21.8812 3.41152 21.5076 3.33804 21.1304 3.33913ZM12 16.8522C8.42609 16.8522 5.53044 13.9565 5.53044 10.3826C5.53044 6.80869 8.42609 3.93913 12 3.93913C15.5739 3.93913 18.4696 6.83478 18.4696 10.4087C18.4696 13.9565 15.5739 16.8522 12 16.8522ZM20.7652 7.3826H19.6174C19.1478 7.35651 18.7826 6.96521 18.8087 6.49565C18.8348 6.05217 19.1739 5.71304 19.6174 5.68695H20.6609C21.1304 5.66086 21.5217 6.02608 21.5478 6.49565C21.5739 6.96521 21.2348 7.35651 20.7652 7.3826Z" fill="white"/>
<path d="M12.0004 6.80859C10.0178 6.80859 8.40039 8.42598 8.40039 10.4086C8.40039 12.3912 10.0178 13.9825 12.0004 13.9825C13.983 13.9825 15.6004 12.3651 15.6004 10.3825C15.6004 8.3999 13.983 6.80859 12.0004 6.80859Z" fill="white"/>
</svg>
