<svg width="26" height="22" viewBox="0 0 26 22" fill="none" xmlns="http://www.w3.org/2000/svg">
<path fill-rule="evenodd" clip-rule="evenodd" d="M26 1.83333C26 1.3471 25.8043 0.880788 25.4561 0.536971C25.1078 0.193155 24.6354 0 24.1429 0H1.85714C1.3646 0 0.892227 0.193155 0.543945 0.536971C0.195663 0.880788 0 1.3471 0 1.83333C0 2.31956 0.195663 2.78588 0.543945 3.1297C0.892227 3.47351 1.3646 3.66667 1.85714 3.66667H24.1429C24.6354 3.66667 25.1078 3.47351 25.4561 3.1297C25.8043 2.78588 26 2.31956 26 1.83333ZM26 11C26 10.5138 25.8043 10.0475 25.4561 9.70364C25.1078 9.35982 24.6354 9.16667 24.1429 9.16667H1.85714C1.3646 9.16667 0.892227 9.35982 0.543945 9.70364C0.195663 10.0475 0 10.5138 0 11C0 11.4862 0.195663 11.9525 0.543945 12.2964C0.892227 12.6402 1.3646 12.8333 1.85714 12.8333H24.1429C24.6354 12.8333 25.1078 12.6402 25.4561 12.2964C25.8043 11.9525 26 11.4862 26 11ZM24.1429 18.3333C24.6354 18.3333 25.1078 18.5265 25.4561 18.8703C25.8043 19.2141 26 19.6804 26 20.1667C26 20.6529 25.8043 21.1192 25.4561 21.463C25.1078 21.8068 24.6354 22 24.1429 22H1.85714C1.3646 22 0.892227 21.8068 0.543945 21.463C0.195663 21.1192 0 20.6529 0 20.1667C0 19.6804 0.195663 19.2141 0.543945 18.8703C0.892227 18.5265 1.3646 18.3333 1.85714 18.3333H24.1429Z" fill="black"/>
</svg>
