<svg width="19" height="19" viewBox="0 0 19 19" fill="none" xmlns="http://www.w3.org/2000/svg">
<path d="M1.16036 2.91107C1.06493 2.81691 0.943759 2.75313 0.812123 2.72777C0.680488 2.70241 0.544289 2.71661 0.420714 2.76857C0.296794 2.81948 0.190715 2.90593 0.115846 3.01702C0.0409775 3.12812 0.00066872 3.25889 0 3.39286V15.6071C0.00066872 15.7411 0.0409775 15.8719 0.115846 15.983C0.190715 16.0941 0.296794 16.1805 0.420714 16.2314C0.501247 16.2694 0.589559 16.288 0.678571 16.2857C0.767876 16.2862 0.856404 16.2691 0.939079 16.2353C1.02175 16.2016 1.09695 16.1518 1.16036 16.0889L7.2675 9.98178C7.3311 9.9187 7.38158 9.84365 7.41603 9.76096C7.45048 9.67827 7.46822 9.58958 7.46822 9.5C7.46822 9.41042 7.45048 9.32173 7.41603 9.23904C7.38158 9.15635 7.3311 9.0813 7.2675 9.01821L1.16036 2.91107ZM18.5793 2.76857C18.4557 2.71661 18.3195 2.70241 18.1879 2.72777C18.0562 2.75313 17.9351 2.81691 17.8396 2.91107L11.7325 9.01821C11.6689 9.0813 11.6184 9.15635 11.584 9.23904C11.5495 9.32173 11.5318 9.41042 11.5318 9.5C11.5318 9.58958 11.5495 9.67827 11.584 9.76096C11.6184 9.84365 11.6689 9.9187 11.7325 9.98178L17.8396 16.0889C17.903 16.1518 17.9782 16.2016 18.0609 16.2353C18.1436 16.2691 18.2321 16.2862 18.3214 16.2857C18.4104 16.288 18.4988 16.2694 18.5793 16.2314C18.7032 16.1805 18.8093 16.0941 18.8842 15.983C18.959 15.8719 18.9993 15.7411 19 15.6071V3.39286C18.9993 3.25889 18.959 3.12812 18.8842 3.01702C18.8093 2.90593 18.7032 2.81948 18.5793 2.76857ZM9.5 0C9.32003 0 9.14743 0.0714921 9.02018 0.198749C8.89292 0.326006 8.82143 0.498603 8.82143 0.678571V2.03571C8.82143 2.21568 8.89292 2.38828 9.02018 2.51554C9.14743 2.64279 9.32003 2.71429 9.5 2.71429C9.67997 2.71429 9.85257 2.64279 9.97982 2.51554C10.1071 2.38828 10.1786 2.21568 10.1786 2.03571V0.678571C10.1786 0.498603 10.1071 0.326006 9.97982 0.198749C9.85257 0.0714921 9.67997 0 9.5 0ZM9.5 4.07143C9.32003 4.07143 9.14743 4.14292 9.02018 4.27018C8.89292 4.39743 8.82143 4.57003 8.82143 4.75V6.10714C8.82143 6.28711 8.89292 6.45971 9.02018 6.58697C9.14743 6.71422 9.32003 6.78571 9.5 6.78571C9.67997 6.78571 9.85257 6.71422 9.97982 6.58697C10.1071 6.45971 10.1786 6.28711 10.1786 6.10714V4.75C10.1786 4.57003 10.1071 4.39743 9.97982 4.27018C9.85257 4.14292 9.67997 4.07143 9.5 4.07143ZM9.5 8.14286C9.32003 8.14286 9.14743 8.21435 9.02018 8.34161C8.89292 8.46886 8.82143 8.64146 8.82143 8.82143V10.1786C8.82143 10.3585 8.89292 10.5311 9.02018 10.6584C9.14743 10.7857 9.32003 10.8571 9.5 10.8571C9.67997 10.8571 9.85257 10.7857 9.97982 10.6584C10.1071 10.5311 10.1786 10.3585 10.1786 10.1786V8.82143C10.1786 8.64146 10.1071 8.46886 9.97982 8.34161C9.85257 8.21435 9.67997 8.14286 9.5 8.14286ZM9.5 12.2143C9.32003 12.2143 9.14743 12.2858 9.02018 12.413C8.89292 12.5403 8.82143 12.7129 8.82143 12.8929V14.25C8.82143 14.43 8.89292 14.6026 9.02018 14.7298C9.14743 14.8571 9.32003 14.9286 9.5 14.9286C9.67997 14.9286 9.85257 14.8571 9.97982 14.7298C10.1071 14.6026 10.1786 14.43 10.1786 14.25V12.8929C10.1786 12.7129 10.1071 12.5403 9.97982 12.413C9.85257 12.2858 9.67997 12.2143 9.5 12.2143ZM9.5 16.2857C9.32003 16.2857 9.14743 16.3572 9.02018 16.4845C8.89292 16.6117 8.82143 16.7843 8.82143 16.9643V18.3214C8.82143 18.5014 8.89292 18.674 9.02018 18.8013C9.14743 18.9285 9.32003 19 9.5 19C9.67997 19 9.85257 18.9285 9.97982 18.8013C10.1071 18.674 10.1786 18.5014 10.1786 18.3214V16.9643C10.1786 16.7843 10.1071 16.6117 9.97982 16.4845C9.85257 16.3572 9.67997 16.2857 9.5 16.2857Z" fill="#D6D6D6"/>
</svg>
