<svg width="20" height="20" viewBox="0 0 20 20" fill="none" xmlns="http://www.w3.org/2000/svg">
<path d="M19.9476 7.55683C19.8835 7.35037 19.7627 7.16812 19.6001 7.03269C19.4376 6.89726 19.2406 6.81463 19.0334 6.79506L13.2601 6.2481L10.9784 0.673807C10.8099 0.264264 10.4266 0 9.99999 0C9.57334 0 9.1899 0.264264 9.02252 0.673807L6.74085 6.2481L0.966568 6.79506C0.543243 6.83582 0.184802 7.13502 0.0523783 7.55683C-0.0121483 7.76346 -0.0171676 7.98531 0.0379422 8.1949C0.0930519 8.40448 0.20587 8.59259 0.362421 8.73593L4.72665 12.7292L3.43988 18.6433C3.34573 19.0782 3.50746 19.5279 3.85324 19.7887C4.03435 19.9262 4.2526 20.0002 4.47657 20C4.66855 20 4.85693 19.9456 5.02161 19.8427L9.99999 16.7364L14.9775 19.8427C15.156 19.9541 15.362 20.0084 15.5699 19.9989C15.7778 19.9893 15.9783 19.9162 16.1468 19.7887C16.4925 19.5279 16.6543 19.0782 16.5601 18.6433L15.2733 12.7292L19.6376 8.73597C19.7941 8.59265 19.907 8.40454 19.9621 8.19495C20.0172 7.98536 20.0121 7.7635 19.9476 7.55687V7.55683Z" fill="white"/>
</svg>
