<svg width="13" height="19" viewBox="0 0 13 19" fill="none" xmlns="http://www.w3.org/2000/svg">
<path d="M4.28602 19C4.2121 19 4.13728 18.9852 4.06581 18.9544C3.94469 18.9022 3.84606 18.8086 3.7875 18.6904C3.72893 18.5722 3.71424 18.4371 3.74604 18.3091L5.62837 10.7322H0.556652C0.466221 10.7322 0.377151 10.7101 0.297148 10.668C0.217144 10.6258 0.148616 10.5648 0.0974915 10.4902C0.0463671 10.4156 0.014186 10.3297 0.00373201 10.2399C-0.00672196 10.1501 0.00486615 10.059 0.0374936 9.9747L3.75814 0.35584C3.79866 0.251072 3.86992 0.161014 3.96258 0.0975032C4.05523 0.0339929 4.16493 2.6179e-06 4.27726 0L9.39689 0C9.58499 0 9.76037 0.0949996 9.86316 0.252565C9.91373 0.330125 9.94416 0.419073 9.95169 0.511356C9.95922 0.60364 9.94361 0.696344 9.90629 0.781075L7.70315 5.78191H12.0605C12.1605 5.78192 12.2586 5.80883 12.3445 5.85982C12.4305 5.91081 12.5011 5.984 12.549 6.07172C12.5969 6.15943 12.6203 6.25842 12.6168 6.3583C12.6132 6.45818 12.5829 6.55527 12.5289 6.63936L4.75463 18.7441C4.70423 18.8226 4.6349 18.8872 4.55301 18.9319C4.47113 18.9766 4.37932 19 4.28602 19Z" fill="#D6D6D6"/>
</svg>
