<svg width="24" height="24" viewBox="0 0 24 24" fill="none" xmlns="http://www.w3.org/2000/svg">
<path d="M23.6243 17.5804L20.004 9.1135C19.3447 7.56354 18.3616 6.68447 17.2397 6.62663C16.1293 6.5688 15.0536 7.34378 14.2324 8.82433L12.0348 12.7686C11.5721 13.6014 10.9128 14.0988 10.1957 14.1566C9.46703 14.226 8.73834 13.8443 8.14845 13.0925L7.89399 12.7686C7.07278 11.7392 6.05493 11.2418 5.01395 11.3459C3.97298 11.45 3.08236 12.1671 2.49247 13.3354L0.491484 17.3259C-0.225634 18.7718 -0.156236 20.449 0.688113 21.8139C1.53246 23.1788 3.0014 24 4.60913 24H19.3679C20.9178 24 22.3636 23.225 23.2195 21.9295C24.0985 20.6341 24.2373 19.0031 23.6243 17.5804ZM6.21802 7.81917C7.25487 7.81917 8.24925 7.40727 8.98242 6.67408C9.71558 5.94089 10.1275 4.94647 10.1275 3.90959C10.1275 2.8727 9.71558 1.87828 8.98242 1.14509C8.24925 0.411902 7.25487 0 6.21802 0C5.18117 0 4.18678 0.411902 3.45362 1.14509C2.72046 1.87828 2.30857 2.8727 2.30857 3.90959C2.30857 4.94647 2.72046 5.94089 3.45362 6.67408C4.18678 7.40727 5.18117 7.81917 6.21802 7.81917Z" fill="white"/>
</svg>
