<svg width="17" height="24" viewBox="0 0 17 24" fill="none" xmlns="http://www.w3.org/2000/svg">
<path d="M8.5001 0C4.70996 0 1.62634 3.14849 1.62634 7.01864V11.0272C1.62634 11.0727 1.57128 11.1495 1.52804 11.1642C1.15633 11.2907 0.854447 11.4004 0.578104 11.5092C0.248556 11.6389 0 12.0118 0 12.3766V21.5871C0 21.9494 0.24695 22.3227 0.57441 22.4552C3.10804 23.4803 5.77462 24 8.50006 24C11.2255 24 13.8921 23.4802 16.4258 22.455C16.7532 22.3226 17 21.9494 17 21.5871V12.3766C17 12.0118 16.7515 11.6389 16.4218 11.5091C16.1453 11.4003 15.8435 11.2906 15.472 11.164C15.4289 11.1494 15.3739 11.0726 15.3739 11.027V7.01852C15.3737 3.14849 12.2902 0 8.5001 0ZM6.62786 15.1818C6.62786 14.1253 7.46608 13.2703 8.49998 13.2703C9.5338 13.2703 10.372 14.1252 10.372 15.1818C10.372 15.8819 9.98537 16.4681 9.43598 16.8003V19.9607C9.43598 20.4891 9.01733 20.9165 8.49994 20.9165C7.98251 20.9165 7.5639 20.4891 7.5639 19.9607V16.8003C7.01455 16.4681 6.62786 15.8819 6.62786 15.1818ZM13.0103 7.01852V10.4771C11.5282 10.1519 10.0166 9.9878 8.5007 9.98747C6.9844 9.98792 5.47238 10.1519 3.98983 10.4768V7.01852C3.98983 4.47914 6.01305 2.41331 8.49998 2.41331C10.9869 2.41327 13.0103 4.47914 13.0103 7.01852Z" fill="white"/>
</svg>
