<svg width="20" height="20" viewBox="0 0 20 20" fill="none" xmlns="http://www.w3.org/2000/svg">
<path d="M18.5714 7.14286V2.14286C18.5714 1.75 18.25 1.42857 17.8571 1.42857H12.8571C12.4643 1.42857 12.1429 1.75 12.1429 2.14286V7.14286C12.1429 7.53571 12.4643 7.85714 12.8571 7.85714H17.8571C18.25 7.85714 18.5714 7.53571 18.5714 7.14286ZM17.8571 0C19.0429 0 20 0.957143 20 2.14286V7.14286C20 8.32857 19.0429 9.28571 17.8571 9.28571H12.8571C11.6714 9.28571 10.7143 8.32857 10.7143 7.14286V2.14286C10.7143 0.957143 11.6714 0 12.8571 0H17.8571ZM18.5714 17.8571V12.8571C18.5714 12.4643 18.25 12.1429 17.8571 12.1429H12.8571C12.4643 12.1429 12.1429 12.4643 12.1429 12.8571V17.8571C12.1429 18.25 12.4643 18.5714 12.8571 18.5714H17.8571C18.25 18.5714 18.5714 18.25 18.5714 17.8571ZM17.8571 10.7143C19.0429 10.7143 20 11.6714 20 12.8571V17.8571C20 19.0429 19.0429 20 17.8571 20H12.8571C11.6714 20 10.7143 19.0429 10.7143 17.8571V12.8571C10.7143 11.6714 11.6714 10.7143 12.8571 10.7143H17.8571ZM7.14286 7.85714C7.53571 7.85714 7.85714 7.53571 7.85714 7.14286V2.14286C7.85714 1.75 7.53571 1.42857 7.14286 1.42857H2.14286C1.75 1.42857 1.42857 1.75 1.42857 2.14286V7.14286C1.42857 7.53571 1.75 7.85714 2.14286 7.85714H7.14286ZM7.14286 0C8.32857 0 9.28571 0.957143 9.28571 2.14286V7.14286C9.28571 8.32857 8.32857 9.28571 7.14286 9.28571H2.14286C0.957143 9.28571 0 8.32857 0 7.14286V2.14286C0 0.957143 0.957143 0 2.14286 0H7.14286ZM7.14286 18.5714C7.53571 18.5714 7.85714 18.25 7.85714 17.8571V12.8571C7.85714 12.4643 7.53571 12.1429 7.14286 12.1429H2.14286C1.75 12.1429 1.42857 12.4643 1.42857 12.8571V17.8571C1.42857 18.25 1.75 18.5714 2.14286 18.5714H7.14286ZM7.14286 10.7143C8.32857 10.7143 9.28571 11.6714 9.28571 12.8571V17.8571C9.28571 19.0429 8.32857 20 7.14286 20H2.14286C0.957143 20 0 19.0429 0 17.8571V12.8571C0 11.6714 0.957143 10.7143 2.14286 10.7143H7.14286Z" fill="#FFA700"/>
</svg>
