<svg width="20" height="20" viewBox="0 0 20 20" fill="none" xmlns="http://www.w3.org/2000/svg">
<path d="M10 0C4.48582 0 0 4.48582 0 10C0 15.5142 4.48582 20 10 20C15.5142 20 20 15.5142 20 10C20 4.48582 15.5142 0 10 0ZM13.0892 10.5892L8.9225 14.7558C8.84521 14.8333 8.75338 14.8948 8.65227 14.9367C8.55116 14.9786 8.44277 15.0001 8.33332 15C8.22387 15.0001 8.11548 14.9786 8.01438 14.9367C7.91327 14.8948 7.82143 14.8333 7.74414 14.7558C7.41832 14.43 7.41832 13.9033 7.74414 13.5775L11.3217 10L7.74418 6.4225C7.41836 6.09668 7.41836 5.57 7.74418 5.24418C8.07 4.91836 8.59668 4.91836 8.9225 5.24418L13.0892 9.41086C13.415 9.73668 13.415 10.2633 13.0892 10.5892Z" fill="white"/>
</svg>
