<svg width="70" height="67" viewBox="0 0 70 67" fill="none" xmlns="http://www.w3.org/2000/svg">
<path d="M54.34 51.252L57.1337 54.0521M44.36 24.5049V13.868L34.091 2H8.25559C4.80069 1.99987 2 4.78439 2 8.21936V54.3993C2 57.8343 4.80069 60.6188 8.25559 60.6188H38.1044C41.2506 60.6188 43.8542 58.3096 44.2944 55.3031M11.9787 29.2016H32.9186M11.9787 35.9934H28.3484M11.9787 22.4098H35.4184M11.9787 15.6181H25.5452M67.1409 64.0583C65.9937 65.2081 64.1323 65.209 62.9839 64.0606L55.3758 56.452L59.5283 52.2903L67.1388 59.9013C68.2862 61.0487 68.2872 62.9095 67.1409 64.0583Z" stroke="#747474" stroke-width="3" stroke-miterlimit="10" stroke-linecap="round" stroke-linejoin="round"/>
<path d="M34.0908 2.53711V13.8686H43.8234M28.0961 44.1776H11.9785V52.3383H34.1945" stroke="#747474" stroke-width="3" stroke-miterlimit="10" stroke-linecap="round" stroke-linejoin="round"/>
<path d="M46.9546 36.498L39.6318 43.8645M46.9546 43.8645L39.6318 36.498" stroke="#747474" stroke-width="3" stroke-miterlimit="10" stroke-linecap="round" stroke-linejoin="round"/>
<path d="M43.2945 55.0364C51.4804 55.0364 58.1164 48.3855 58.1164 40.1813C58.1164 31.977 51.4804 25.3262 43.2945 25.3262C35.1086 25.3262 28.4727 31.977 28.4727 40.1813C28.4727 48.3855 35.1086 55.0364 43.2945 55.0364Z" stroke="#747474" stroke-width="3" stroke-miterlimit="10" stroke-linecap="round" stroke-linejoin="round"/>
</svg>
