<svg width="18" height="20" viewBox="0 0 18 20" fill="none" xmlns="http://www.w3.org/2000/svg">
<path d="M9 20C8.72527 19.9997 8.45517 19.9275 8.21538 19.7903L5.10462 18.0217C3.55804 17.1416 2.26933 15.8546 1.37187 14.2937C0.474396 12.7329 0.000769379 10.9549 1.0004e-08 9.1438V4.23485C-4.44219e-05 3.82636 0.147918 3.43237 0.41527 3.12907C0.682623 2.82577 1.05037 2.63472 1.44738 2.59286C2.68507 2.4586 3.90318 2.17672 5.07692 1.75298C6.15308 1.36363 7.18542 0.857507 8.15631 0.243255C8.41028 0.0841808 8.70225 0 9 0C9.29775 0 9.58972 0.0841808 9.84369 0.243255C10.8147 0.857335 11.847 1.36345 12.9231 1.75298C14.0968 2.17672 15.3149 2.4586 16.5526 2.59286C16.9496 2.63472 17.3174 2.82577 17.5847 3.12907C17.8521 3.43237 18 3.82636 18 4.23485V9.1438C17.9992 10.9549 17.5256 12.7329 16.6281 14.2937C15.7307 15.8546 14.442 17.1416 12.8954 18.0217L9.78462 19.7912C9.54478 19.9282 9.27466 20.0001 9 20ZM9 1.41664C8.95938 1.41627 8.91945 1.42739 8.88462 1.44876C7.82952 2.1162 6.70777 2.66634 5.53846 3.08981C4.263 3.55055 2.93922 3.85684 1.59415 4.00244C1.53702 4.00741 1.48379 4.03414 1.44499 4.07736C1.40618 4.12057 1.38464 4.17711 1.38462 4.2358V9.14475C1.38511 10.7031 1.79254 12.2331 2.56473 13.5762C3.33692 14.9193 4.44581 16.0268 5.77662 16.784L8.88739 18.5526C8.92149 18.5722 8.95995 18.5826 8.99908 18.5826C9.0382 18.5826 9.07666 18.5722 9.11077 18.5526L12.2234 16.784C13.5542 16.0268 14.6631 14.9193 15.4353 13.5762C16.2075 12.2331 16.6149 10.7031 16.6154 9.14475V4.23485C16.6154 4.17616 16.5938 4.11962 16.555 4.07641C16.5162 4.0332 16.463 4.00646 16.4058 4.0015C15.0608 3.8559 13.737 3.5496 12.4615 3.08886C11.2923 2.66599 10.1706 2.11649 9.11539 1.44971C9.08072 1.42782 9.04073 1.41636 9 1.41664Z" fill="#FF4F90"/>
<path d="M8.53862 12.1042C8.36902 12.1043 8.20533 12.0404 8.07893 11.9247L6.00201 10.0351C5.87323 9.90816 5.79745 9.73509 5.79055 9.5522C5.78366 9.36931 5.84618 9.19078 5.96501 9.05401C6.08385 8.91724 6.24978 8.83284 6.42806 8.81849C6.60634 8.80414 6.78312 8.86095 6.92139 8.97702L8.49431 10.4074L11.4952 7.13191C11.557 7.06246 11.6317 7.00627 11.7149 6.96662C11.7981 6.92697 11.8881 6.90464 11.9798 6.90094C12.0715 6.89724 12.1631 6.91223 12.249 6.94505C12.335 6.97788 12.4138 7.02787 12.4807 7.09212C12.5477 7.15637 12.6015 7.23361 12.639 7.31933C12.6765 7.40506 12.697 7.49756 12.6992 7.59146C12.7015 7.68536 12.6855 7.77878 12.6522 7.8663C12.6188 7.95381 12.5688 8.03367 12.5051 8.10123L9.04355 11.8803C8.97891 11.9511 8.90072 12.0075 8.81385 12.046C8.72698 12.0845 8.63329 12.1043 8.53862 12.1042Z" fill="#FF4F90"/>
</svg>
