<svg width="24" height="24" viewBox="0 0 24 24" fill="none" xmlns="http://www.w3.org/2000/svg">
<path d="M15.9612 11.5309L10.977 7.90777C10.8874 7.84249 10.7816 7.80325 10.6711 7.7944C10.5607 7.78555 10.4499 7.80742 10.3511 7.85761C10.2523 7.90779 10.1693 7.98433 10.1113 8.07875C10.0533 8.17317 10.0226 8.2818 10.0225 8.39261V15.6365C10.0221 15.7474 10.0526 15.8563 10.1106 15.951C10.1685 16.0457 10.2516 16.1224 10.3506 16.1726C10.4496 16.2228 10.5605 16.2445 10.6712 16.2353C10.7818 16.2261 10.8876 16.1864 10.977 16.1205L15.9612 12.5006C16.0382 12.4453 16.1009 12.3725 16.1442 12.2882C16.1875 12.2039 16.2101 12.1105 16.2101 12.0157C16.2101 11.921 16.1875 11.8275 16.1442 11.7432C16.1009 11.6589 16.0382 11.5861 15.9612 11.5309Z" fill="white"/>
<path d="M12.002 0C5.37238 0 0 5.37238 0 12.002C0 18.6292 5.37238 24 12.002 24C18.63 24 24.0032 18.6284 24.0032 12.002C24.004 5.37238 18.63 0 12.002 0ZM12.002 21.9975C6.48105 21.9975 2.00486 17.5237 2.00486 12.002C2.00486 6.48264 6.48105 2.00326 12.002 2.00326C17.5221 2.00326 21.9975 6.48185 21.9975 12.002C21.9983 17.5237 17.5221 21.9975 12.002 21.9975Z" fill="white"/>
</svg>
