<svg width="20" height="22" viewBox="0 0 20 22" fill="none" xmlns="http://www.w3.org/2000/svg">
<path d="M3.44828 17.1875H18.9655C19.5379 17.1875 20 16.7269 20 16.1562V1.03125C20 0.460625 19.5379 0 18.9655 0H3.44828C1.54483 0 0 1.54 0 3.4375V18.5625C0 20.46 1.54483 22 3.44828 22H18.9655C19.5379 22 20 21.5394 20 20.9688C20 20.3981 19.5379 19.9375 18.9655 19.9375H3.44828C2.68966 19.9375 2.06897 19.3188 2.06897 18.5625C2.06897 17.8062 2.68966 17.1875 3.44828 17.1875ZM10.731 13.7912C10.5379 13.9837 10.269 14.0938 10 14.0938C9.73103 14.0938 9.46207 13.9837 9.26897 13.7912C9.17296 13.6956 9.0968 13.5819 9.04484 13.4569C8.99289 13.3319 8.96614 13.1978 8.96614 13.0625C8.96614 12.9272 8.99289 12.7931 9.04484 12.6681C9.0968 12.5431 9.17296 12.4294 9.26897 12.3338C9.65517 11.9488 10.3448 11.9488 10.731 12.3338C10.827 12.4294 10.9032 12.5431 10.9552 12.6681C11.0071 12.7931 11.0339 12.9272 11.0339 13.0625C11.0339 13.1978 11.0071 13.3319 10.9552 13.4569C10.9032 13.5819 10.827 13.6956 10.731 13.7912ZM8.0069 3.81563C8.35668 3.52605 8.76546 3.3158 9.2049 3.19946C9.64434 3.08311 10.1039 3.06347 10.5517 3.14188C11.8069 3.36188 12.8345 4.38625 13.0552 5.6375C13.2828 6.95062 12.6621 8.25688 11.4966 8.89625C11.2138 9.05437 11.0345 9.405 11.0345 9.80375V9.96875C11.0345 10.5394 10.5724 11 10 11C9.42759 11 8.96552 10.5394 8.96552 9.96875V9.80375C8.96552 8.64875 9.55172 7.61062 10.4966 7.095C10.8 6.93 11.1103 6.53813 11.0138 5.995C10.9448 5.58938 10.6 5.24563 10.2 5.17687C9.87586 5.115 9.57241 5.1975 9.33793 5.39688C9.10345 5.59625 8.96552 5.885 8.96552 6.1875C8.96552 6.75812 8.50345 7.21875 7.93103 7.21875C7.35862 7.21875 6.89655 6.75812 6.89655 6.1875C6.89655 5.27313 7.30345 4.40688 8.0069 3.81563Z" fill="black"/>
</svg>
