<svg width="22" height="20" viewBox="0 0 22 20" fill="none" xmlns="http://www.w3.org/2000/svg">
<path d="M4.92411 20C4.68305 20 4.44371 19.9286 4.23944 19.7885C4.05364 19.661 3.91148 19.4844 3.83064 19.2808C3.74979 19.0772 3.73383 18.8555 3.78473 18.6433L5.20007 12.7291L0.400178 8.7361C0.22755 8.59321 0.10302 8.40533 0.0420826 8.19582C-0.0188549 7.98631 -0.0135101 7.76443 0.0574518 7.55779C0.127978 7.35125 0.260855 7.16889 0.439606 7.03332C0.618358 6.89775 0.835124 6.81493 1.06303 6.79512L7.41382 6.24813L9.92476 0.674005C10.1098 0.264466 10.5314 0 10.9999 0C11.4684 0 11.8901 0.264466 12.0752 0.673068L14.5861 6.24813L20.9359 6.79504C21.4035 6.83499 21.7976 7.13516 21.9424 7.55774C22.0873 7.98037 21.9534 8.44388 21.6005 8.73606L16.8007 12.7284L18.216 18.6424C18.3197 19.0773 18.1418 19.527 17.7615 19.7878C17.382 20.0485 16.8759 20.0686 16.4763 19.8407L10.9999 16.7363L5.52367 19.8425C5.33851 19.9468 5.13222 20 4.92411 20ZM10.9999 15.399C11.2081 15.399 11.4142 15.4519 11.5995 15.5563L16.7678 18.4886L15.4321 12.9065C15.3853 12.7114 15.395 12.508 15.4602 12.3177C15.5254 12.1274 15.6437 11.9574 15.8025 11.8257L20.3346 8.05517L14.3385 7.53867C14.1275 7.52075 13.9256 7.44872 13.7544 7.33029C13.5832 7.21186 13.4493 7.0515 13.3668 6.86637L10.9999 1.60616L8.63025 6.86715C8.4634 7.24196 8.0921 7.49945 7.66141 7.53687L1.66443 8.05342L6.19645 11.8239C6.52104 12.0935 6.66301 12.5075 6.56685 12.9058L5.23212 18.4876L10.4004 15.5563C10.5855 15.4519 10.7918 15.399 10.9999 15.399ZM7.36531 6.35591C7.36531 6.35591 7.36531 6.35685 7.36432 6.35766L7.36531 6.35591ZM14.6328 6.35334L14.6338 6.35509C14.6338 6.35416 14.6338 6.35416 14.6327 6.35334H14.6328Z" fill="#F8DE00"/>
</svg>
