<svg width="19" height="19" viewBox="0 0 19 19" fill="none" xmlns="http://www.w3.org/2000/svg">
<path d="M9.50002 4.75C6.87802 4.75 4.75 6.87802 4.75 9.50002C4.75 12.122 6.87802 14.25 9.50002 14.25C12.122 14.25 14.25 12.122 14.25 9.49998C14.25 6.87797 12.122 4.75 9.50002 4.75Z" fill="#D6D6D6"/>
<path d="M9.5 0C4.25127 0 0 4.25127 0 9.5C0 14.7487 4.25127 19 9.5 19C14.7487 19 19 14.7488 19 9.5C19 4.25123 14.7488 0 9.5 0ZM9.5 17.1C5.30101 17.1 1.89997 13.699 1.89997 9.5C1.89997 5.30096 5.30101 1.90002 9.5 1.90002C13.699 1.90002 17.1 5.30101 17.1 9.5C17.1 13.699 13.699 17.1 9.5 17.1Z" fill="#D6D6D6"/>
</svg>
