<svg width="19" height="19" viewBox="0 0 19 19" fill="none" xmlns="http://www.w3.org/2000/svg">
<path d="M18.9995 1.90009V6.64996C18.9995 6.90191 18.8994 7.14353 18.7212 7.32169C18.5431 7.49984 18.3014 7.59993 18.0495 7.59993H13.2996C13.0477 7.59993 12.8061 7.49984 12.6279 7.32169C12.4497 7.14353 12.3497 6.90191 12.3497 6.64996C12.3497 6.39801 12.4497 6.15638 12.6279 5.97822C12.8061 5.80007 13.0477 5.69998 13.2996 5.69998H16.0641C15.2659 4.3143 14.0503 3.21628 12.5909 2.56277C11.1314 1.90926 9.50274 1.7337 7.93753 2.06115C6.37232 2.38861 4.95063 3.20233 3.87553 4.38609C2.80044 5.56985 2.12694 7.06309 1.95125 8.6525C1.92597 8.88513 1.81573 9.10024 1.64166 9.25661C1.46758 9.41299 1.24192 9.49961 1.00792 9.49988C0.973012 9.49987 0.938128 9.49797 0.903425 9.49418C0.65337 9.46692 0.424333 9.3416 0.266549 9.1457C0.108764 8.94981 0.035113 8.69933 0.0617483 8.44921C0.27115 6.55645 1.04496 4.77041 2.28265 3.32316C3.52033 1.87591 5.16467 0.834351 7.00202 0.333806C8.83937 -0.16674 10.7848 -0.103129 12.5855 0.516371C14.3862 1.13587 15.959 2.28263 17.0995 3.80764V1.90009C17.0995 1.64814 17.1996 1.40651 17.3778 1.22836C17.5559 1.0502 17.7976 0.950115 18.0495 0.950115C18.3014 0.950115 18.5431 1.0502 18.7212 1.22836C18.8994 1.40651 18.9995 1.64814 18.9995 1.90009ZM18.096 9.50558C17.8459 9.47894 17.5954 9.55259 17.3996 9.71038C17.2037 9.86816 17.0783 10.0972 17.0511 10.3473C16.8762 11.9375 16.2029 13.4318 15.1276 14.6164C14.0523 15.801 12.63 16.6153 11.064 16.9428C9.49806 17.2704 7.86862 17.0944 6.40867 16.4401C4.94873 15.7858 3.73304 14.6866 2.93542 13.2998H5.69984C5.95179 13.2998 6.19342 13.1997 6.37157 13.0215C6.54973 12.8434 6.64982 12.6017 6.64982 12.3498C6.64982 12.0978 6.54973 11.8562 6.37157 11.6781C6.19342 11.4999 5.95179 11.3998 5.69984 11.3998H0.949974C0.698025 11.3998 0.456395 11.4999 0.278241 11.6781C0.100086 11.8562 0 12.0978 0 12.3498V17.0997C0 17.3516 0.100086 17.5932 0.278241 17.7714C0.456395 17.9496 0.698025 18.0496 0.949974 18.0496C1.20192 18.0496 1.44355 17.9496 1.62171 17.7714C1.79986 17.5932 1.89995 17.3516 1.89995 17.0997V15.1921C3.04033 16.7171 4.61296 17.8638 6.41353 18.4834C8.21411 19.103 10.1594 19.1668 11.9967 18.6665C13.834 18.1661 15.4783 17.1248 16.7161 15.6778C17.954 14.2309 18.728 12.4451 18.9377 10.5524C18.9649 10.302 18.8915 10.051 18.7337 9.85473C18.5758 9.65841 18.3465 9.53282 18.096 9.50558Z" fill="#D6D6D6"/>
</svg>
