<svg width="18" height="18" viewBox="0 0 18 18" fill="none" xmlns="http://www.w3.org/2000/svg">
<path d="M16.0007 3.19372C15.403 2.49172 14.7008 1.88434 13.9184 1.39258C12.4694 0.481555 10.7928 0 9.07003 0C6.64733 0 4.36964 0.936163 2.65654 2.63604C0.943443 4.33592 0 6.59604 0 9C0 11.404 0.943443 13.6642 2.65654 15.364C4.36964 17.0638 6.64733 18 9.07003 18C10.9315 18 12.7204 17.4444 14.2436 16.3931C15.7308 15.3667 16.8641 13.9422 17.521 12.2737L15.4587 11.4742C14.4235 14.1039 11.9157 15.8031 9.06995 15.8031C5.28953 15.8031 2.21392 12.7512 2.21392 8.99992C2.21392 5.24863 5.28957 2.19683 9.06999 2.19683C10.9835 2.19683 12.7529 2.96829 14.0238 4.29067L11.6141 5.62794L14.7569 7.48581L17.8998 9.34379L17.9498 5.71404L18 2.08429L16.0007 3.19372Z" fill="white"/>
</svg>
