<svg width="18" height="21" viewBox="0 0 18 21" fill="none" xmlns="http://www.w3.org/2000/svg">
<path d="M14.6149 14.1256C13.6241 14.1256 12.7313 14.5601 12.1117 15.2513L6.53867 11.7463C6.69168 11.3492 6.77012 10.9265 6.76996 10.5C6.77015 10.0735 6.6917 9.6508 6.53867 9.25366L12.1117 5.74859C12.7313 6.43978 13.6241 6.87446 14.6149 6.87446C16.4815 6.87446 18 5.33252 18 3.43715C18 1.54178 16.4815 0 14.6149 0C12.7484 0 11.2299 1.54194 11.2299 3.43731C11.2298 3.86376 11.3082 4.28645 11.4612 4.68362L5.88827 8.18856C5.26866 7.49737 4.37595 7.06269 3.38508 7.06269C1.51851 7.06269 0 8.60479 0 10.5C0 12.3953 1.51851 13.9373 3.38508 13.9373C4.3759 13.9373 5.2687 13.5028 5.88827 12.8114L11.4612 16.3164C11.3083 16.7136 11.2298 17.1364 11.2299 17.5628C11.2299 19.4581 12.7483 21 14.6149 21C16.4815 21 18 19.4581 18 17.5629C18 15.6675 16.4815 14.1256 14.6149 14.1256ZM12.4642 3.43731C12.4642 2.2331 13.429 1.2534 14.6149 1.2534C15.8008 1.2534 16.7656 2.2331 16.7656 3.43731C16.7656 4.64153 15.8008 5.62123 14.6149 5.62123C13.429 5.62123 12.4642 4.64149 12.4642 3.43731ZM3.38508 12.6839C2.199 12.6839 1.23419 11.7042 1.23419 10.5C1.23419 9.29582 2.199 8.31608 3.38508 8.31608C4.571 8.31608 5.53565 9.29582 5.53565 10.5C5.53565 11.7042 4.57096 12.6839 3.38508 12.6839ZM12.4642 17.5627C12.4642 16.3585 13.429 15.3788 14.6149 15.3788C15.8008 15.3788 16.7656 16.3585 16.7656 17.5627C16.7656 18.7669 15.8008 19.7466 14.6149 19.7466C13.429 19.7466 12.4642 18.7669 12.4642 17.5627V17.5627Z" fill="#54A6D2"/>
</svg>
