<svg width="20" height="20" viewBox="0 0 20 20" fill="none" xmlns="http://www.w3.org/2000/svg">
<path d="M15.1807 20C14.9178 20.0002 14.6588 19.9332 14.4264 19.805L10.1088 17.4393C10.0753 17.4206 10.038 17.4109 10.0001 17.4109C9.96211 17.4109 9.92476 17.4206 9.8913 17.4393L5.57443 19.805C5.30692 19.9518 5.00535 20.0176 4.70384 19.9949C4.40233 19.9723 4.11292 19.8621 3.86836 19.6769C3.62379 19.4916 3.43384 19.2387 3.31998 18.9468C3.20613 18.6549 3.17292 18.3355 3.22412 18.0249L4.04843 13.014C4.05476 12.9747 4.05176 12.9345 4.03968 12.8967C4.02761 12.8589 4.00682 12.8248 3.97916 12.7974L0.48937 9.24659C0.272697 9.02652 0.119478 8.74758 0.0470737 8.44138C-0.0253306 8.13519 -0.0140257 7.81397 0.0797075 7.51412C0.173441 7.21428 0.345855 6.9478 0.577415 6.74487C0.808975 6.54194 1.09042 6.41069 1.38987 6.36597L6.2131 5.63588C6.25063 5.63019 6.28626 5.61505 6.31692 5.59177C6.34758 5.56849 6.37233 5.53778 6.38904 5.50229L8.54539 0.941963C8.67896 0.65926 8.88578 0.42119 9.14244 0.254712C9.3991 0.0882346 9.69534 0 9.99763 0C10.2999 0 10.5962 0.0882346 10.8528 0.254712C11.1095 0.42119 11.3163 0.65926 11.4499 0.941963L13.6076 5.50084C13.6245 5.53622 13.6492 5.56684 13.6799 5.5901C13.7105 5.61336 13.7461 5.62857 13.7835 5.63444L18.6109 6.36525C18.9102 6.41022 19.1915 6.54162 19.4229 6.74458C19.6543 6.94753 19.8266 7.21395 19.9203 7.51368C20.014 7.81342 20.0253 8.13451 19.9531 8.44063C19.8808 8.74675 19.7278 9.02568 19.5114 9.24587L16.0182 12.7945C15.9906 12.822 15.9699 12.8561 15.9578 12.8939C15.9458 12.9316 15.9427 12.9719 15.9489 13.0111L16.7732 18.0221C16.8129 18.2642 16.8014 18.5124 16.7397 18.7494C16.678 18.9865 16.5675 19.2067 16.4158 19.3946C16.2642 19.5826 16.0751 19.7339 15.8617 19.838C15.6482 19.942 15.4156 19.9963 15.18 19.9971L15.1807 20ZM10.0001 15.9661C10.2628 15.9661 10.5215 16.033 10.7537 16.1611L15.0706 18.5261C15.1088 18.5489 15.1526 18.5593 15.1965 18.5561C15.2404 18.5529 15.2824 18.5362 15.3172 18.5081C15.3535 18.4821 15.3817 18.4456 15.3983 18.4031C15.4149 18.3607 15.4192 18.314 15.4107 18.269L14.5857 13.2574C14.5416 12.9876 14.5609 12.7108 14.642 12.4506C14.7231 12.1903 14.8635 11.9545 15.0512 11.7633L18.5444 8.21393C18.5756 8.18209 18.5976 8.1418 18.608 8.0976C18.6184 8.0534 18.6167 8.00706 18.6032 7.9638C18.5896 7.92054 18.5648 7.88209 18.5314 7.85279C18.498 7.82349 18.4574 7.8045 18.4142 7.79798L13.5875 7.06645C13.3277 7.02722 13.0809 6.92263 12.8685 6.76171C12.656 6.60079 12.4844 6.38838 12.3684 6.14283L10.2079 1.58323C10.1885 1.54242 10.1586 1.50807 10.1215 1.48405C10.0844 1.46003 10.0416 1.44731 9.99797 1.44731C9.95431 1.44731 9.91152 1.46003 9.87443 1.48405C9.83734 1.50807 9.80744 1.54242 9.78809 1.58323L7.63173 6.14138C7.51563 6.38703 7.34389 6.59949 7.13135 6.76042C6.91882 6.92135 6.67188 7.02589 6.4119 7.065L1.5859 7.79798C1.54262 7.80436 1.50192 7.82329 1.46845 7.8526C1.43497 7.88192 1.41007 7.92044 1.39657 7.96379C1.38307 8.00714 1.38152 8.05357 1.39209 8.09779C1.40266 8.14202 1.42493 8.18225 1.45637 8.21393L4.94893 11.7633C5.13662 11.9545 5.27702 12.1903 5.35809 12.4506C5.43916 12.7108 5.45849 12.9876 5.41442 13.2574L4.58942 18.269C4.58194 18.3141 4.58673 18.3604 4.60325 18.4027C4.61977 18.445 4.64735 18.4817 4.68287 18.5084C4.71838 18.5352 4.76039 18.5511 4.80412 18.5542C4.84785 18.5573 4.89155 18.5476 4.93023 18.5261L9.2464 16.1604C9.47877 16.0328 9.73743 15.9661 10.0001 15.9661Z" fill="white"/>
</svg>
