<svg width="24" height="24" viewBox="0 0 24 24" fill="none" xmlns="http://www.w3.org/2000/svg">
<path fill-rule="evenodd" clip-rule="evenodd" d="M11.999 0C5.37619 0 -0.000976562 5.37717 -0.000976562 12C-0.000976562 18.6228 5.37619 24 11.999 24C18.6219 24 23.999 18.6228 23.999 12C23.999 5.37717 18.6219 0 11.999 0ZM11.999 1.7561C17.6531 1.7561 22.2429 6.34595 22.2429 12C22.2429 17.654 17.6531 22.2439 11.999 22.2439C6.34497 22.2439 1.75512 17.654 1.75512 12C1.75512 6.34595 6.34497 1.7561 11.999 1.7561ZM16.3893 14.342V9.65912C16.3893 9.11575 16.1734 8.59464 15.7892 8.21042C15.405 7.82619 14.8839 7.61034 14.3405 7.61034H9.65756C9.11419 7.61034 8.59307 7.82619 8.20885 8.21042C7.82463 8.59464 7.60878 9.11575 7.60878 9.65912V14.342C7.60878 14.8854 7.82463 15.4065 8.20885 15.7908C8.59307 16.175 9.11419 16.3908 9.65756 16.3908H14.3405C14.8839 16.3908 15.405 16.175 15.7892 15.7908C16.1734 15.4065 16.3893 14.8854 16.3893 14.342Z" fill="#FF3A3A"/>
</svg>
