<svg width="20" height="19" viewBox="0 0 20 19" fill="none" xmlns="http://www.w3.org/2000/svg">
<path d="M19.4264 9.59316C19.1177 7.75452 17.8173 7.46725 17.214 7.43488C17.028 7.42489 16.8546 7.3305 16.753 7.17416C16.3132 6.49802 15.7222 6.3194 15.2203 6.3194C14.9955 6.3194 14.7887 6.35529 14.6213 6.39823C14.5708 6.41123 14.519 6.41782 14.4669 6.41781C14.2803 6.41781 14.1007 6.33292 13.9875 6.17782C13.5542 5.58403 12.9904 5.42327 12.507 5.42327C12.3926 5.4235 12.2784 5.43205 12.1652 5.44883C12.1352 5.45326 12.1019 5.45539 12.0726 5.45539C11.7479 5.45539 11.4706 5.19516 11.4706 4.85971V1.34973C11.4706 0.449911 10.7935 0 10.1186 0C9.4438 0 8.76668 0.449911 8.76668 1.34973V9.98211C8.76668 10.657 8.21869 11.145 7.61048 11.145C7.43039 11.145 7.24849 11.1023 7.07183 11.0089C6.24797 10.5735 5.36273 10.1918 4.44095 9.83094C4.23504 9.7504 4.03684 9.71393 3.84994 9.71393C2.58567 9.71377 1.87422 11.3798 3.27278 12.2798C4.87799 13.3129 6.91337 13.8783 7.70487 15.0467C8.19419 15.769 9.22323 17.8441 9.62209 18.6539C9.72255 18.8577 9.92985 19 10.157 19H16.4657C16.7647 19 17.0176 18.7649 17.057 18.4686L17.3896 15.959C17.4016 15.8688 17.4335 15.7825 17.4829 15.7061C19.2219 13.056 19.7189 11.3357 19.4264 9.59316Z" fill="#D6D6D6"/>
<path d="M3.96022 6.70966C3.96022 6.57928 3.90842 6.45423 3.81623 6.36204C3.72403 6.26984 3.59899 6.21804 3.4686 6.21804H1.75622L6.14521 1.79251V3.50498C6.14521 3.63536 6.197 3.76041 6.2892 3.8526C6.3814 3.9448 6.50644 3.99659 6.63682 3.99659C6.76721 3.99659 6.89225 3.9448 6.98445 3.8526C7.07665 3.76041 7.12844 3.63536 7.12844 3.50498V0.555276C7.12844 0.283739 6.93556 0.0727539 6.66411 0.0727539H3.79635C3.66596 0.0727539 3.54092 0.124549 3.44872 0.216745C3.35652 0.308941 3.30473 0.433986 3.30473 0.564371C3.30473 0.694755 3.35652 0.8198 3.44872 0.911996C3.54092 1.00419 3.66596 1.05599 3.79635 1.05599H5.52749L0.983233 5.56411V3.8328C0.983233 3.70242 0.931438 3.57737 0.839242 3.48518C0.747046 3.39298 0.622001 3.34119 0.491617 3.34119C0.361232 3.34119 0.236187 3.39298 0.143991 3.48518C0.0517952 3.57737 0 3.70242 0 3.8328L0 6.70057C0 6.97202 0.247447 7.20128 0.518901 7.20128H3.4686C3.59899 7.20128 3.72403 7.14948 3.81623 7.05729C3.90842 6.96509 3.96022 6.84005 3.96022 6.70966Z" fill="#D6D6D6"/>
</svg>
